<?xml version="1.0" encoding="utf-8" standalone="no"?>
<!DOCTYPE svg PUBLIC "-//W3C//DTD SVG 1.1//EN"
  "http://www.w3.org/Graphics/SVG/1.1/DTD/svg11.dtd">
<svg xmlns:xlink="http://www.w3.org/1999/xlink" width="460.8pt" height="345.6pt" viewBox="0 0 460.8 345.6" xmlns="http://www.w3.org/2000/svg" version="1.1">
 <metadata>
  <rdf:RDF xmlns:dc="http://purl.org/dc/elements/1.1/" xmlns:cc="http://creativecommons.org/ns#" xmlns:rdf="http://www.w3.org/1999/02/22-rdf-syntax-ns#">
   <cc:Work>
    <dc:type rdf:resource="http://purl.org/dc/dcmitype/StillImage"/>
    <dc:date>2022-01-29T14:06:50.368417</dc:date>
    <dc:format>image/svg+xml</dc:format>
    <dc:creator>
     <cc:Agent>
      <dc:title>Matplotlib v3.5.1, https://matplotlib.org/</dc:title>
     </cc:Agent>
    </dc:creator>
   </cc:Work>
  </rdf:RDF>
 </metadata>
 <defs>
  <style type="text/css">*{stroke-linejoin: round; stroke-linecap: butt}</style>
 </defs>
 <g id="figure_1">
  <g id="patch_1">
   <path d="M 0 345.6 
L 460.8 345.6 
L 460.8 0 
L 0 0 
z
" style="fill: #ffffff"/>
  </g>
  <g id="axes_1">
   <g id="patch_2">
    <path d="M 57.6 307.584 
L 414.72 307.584 
L 414.72 41.472 
L 57.6 41.472 
z
" style="fill: #ffffff"/>
   </g>
   <g id="patch_3">
    <path d="M 73.832727 52476.820939 
L 77.744228 52476.820939 
L 77.744228 194.293183 
L 73.832727 194.293183 
z
" clip-path="url(#p9041774428)" style="fill: #1f77b4"/>
   </g>
   <g id="patch_4">
    <path d="M 101.213231 52476.820939 
L 105.124732 52476.820939 
L 105.124732 188.34302 
L 101.213231 188.34302 
z
" clip-path="url(#p9041774428)" style="fill: #1f77b4"/>
   </g>
   <g id="patch_5">
    <path d="M 128.593735 52476.820939 
L 132.505235 52476.820939 
L 132.505235 188.956521 
L 128.593735 188.956521 
z
" clip-path="url(#p9041774428)" style="fill: #1f77b4"/>
   </g>
   <g id="patch_6">
    <path d="M 155.974239 52476.820939 
L 159.885739 52476.820939 
L 159.885739 186.440037 
L 155.974239 186.440037 
z
" clip-path="url(#p9041774428)" style="fill: #1f77b4"/>
   </g>
   <g id="patch_7">
    <path d="M 183.354743 52476.820939 
L 187.266243 52476.820939 
L 187.266243 131.412103 
L 183.354743 131.412103 
z
" clip-path="url(#p9041774428)" style="fill: #1f77b4"/>
   </g>
   <g id="patch_8">
    <path d="M 238.11575 52476.820939 
L 242.027251 52476.820939 
L 242.027251 177.117901 
L 238.11575 177.117901 
z
" clip-path="url(#p9041774428)" style="fill: #1f77b4"/>
   </g>
   <g id="patch_9">
    <path d="M 265.496254 52476.820939 
L 269.407755 52476.820939 
L 269.407755 184.426554 
L 265.496254 184.426554 
z
" clip-path="url(#p9041774428)" style="fill: #1f77b4"/>
   </g>
   <g id="patch_10">
    <path d="M 292.876758 52476.820939 
L 296.788258 52476.820939 
L 296.788258 200.324168 
L 292.876758 200.324168 
z
" clip-path="url(#p9041774428)" style="fill: #1f77b4"/>
   </g>
   <g id="patch_11">
    <path d="M 320.257262 52476.820939 
L 324.168762 52476.820939 
L 324.168762 186.49022 
L 320.257262 186.49022 
z
" clip-path="url(#p9041774428)" style="fill: #1f77b4"/>
   </g>
   <g id="patch_12">
    <path d="M 347.637766 52476.820939 
L 351.549266 52476.820939 
L 351.549266 201.17727 
L 347.637766 201.17727 
z
" clip-path="url(#p9041774428)" style="fill: #1f77b4"/>
   </g>
   <g id="patch_13">
    <path d="M 375.018269 52476.820939 
L 378.92977 52476.820939 
L 378.92977 193.619822 
L 375.018269 193.619822 
z
" clip-path="url(#p9041774428)" style="fill: #1f77b4"/>
   </g>
   <g id="patch_14">
    <path d="M 77.744228 52476.820939 
L 81.655728 52476.820939 
L 81.655728 206.059573 
L 77.744228 206.059573 
z
" clip-path="url(#p9041774428)" style="fill: #ff7f0e"/>
   </g>
   <g id="patch_15">
    <path d="M 105.124732 52476.820939 
L 109.036232 52476.820939 
L 109.036232 199.573112 
L 105.124732 199.573112 
z
" clip-path="url(#p9041774428)" style="fill: #ff7f0e"/>
   </g>
   <g id="patch_16">
    <path d="M 132.505235 52476.820939 
L 136.416736 52476.820939 
L 136.416736 202.870099 
L 132.505235 202.870099 
z
" clip-path="url(#p9041774428)" style="fill: #ff7f0e"/>
   </g>
   <g id="patch_17">
    <path d="M 159.885739 52476.820939 
L 163.79724 52476.820939 
L 163.79724 197.118446 
L 159.885739 197.118446 
z
" clip-path="url(#p9041774428)" style="fill: #ff7f0e"/>
   </g>
   <g id="patch_18">
    <path d="M 187.266243 52476.820939 
L 191.177744 52476.820939 
L 191.177744 176.326774 
L 187.266243 176.326774 
z
" clip-path="url(#p9041774428)" style="fill: #ff7f0e"/>
   </g>
   <g id="patch_19">
    <path d="M 242.027251 52476.820939 
L 245.938751 52476.820939 
L 245.938751 193.10506 
L 242.027251 193.10506 
z
" clip-path="url(#p9041774428)" style="fill: #ff7f0e"/>
   </g>
   <g id="patch_20">
    <path d="M 269.407755 52476.820939 
L 273.319255 52476.820939 
L 273.319255 200.26791 
L 269.407755 200.26791 
z
" clip-path="url(#p9041774428)" style="fill: #ff7f0e"/>
   </g>
   <g id="patch_21">
    <path d="M 296.788258 52476.820939 
L 300.699759 52476.820939 
L 300.699759 203.154677 
L 296.788258 203.154677 
z
" clip-path="url(#p9041774428)" style="fill: #ff7f0e"/>
   </g>
   <g id="patch_22">
    <path d="M 324.168762 52476.820939 
L 328.080263 52476.820939 
L 328.080263 206.602898 
L 324.168762 206.602898 
z
" clip-path="url(#p9041774428)" style="fill: #ff7f0e"/>
   </g>
   <g id="patch_23">
    <path d="M 351.549266 52476.820939 
L 355.460767 52476.820939 
L 355.460767 208.064014 
L 351.549266 208.064014 
z
" clip-path="url(#p9041774428)" style="fill: #ff7f0e"/>
   </g>
   <g id="patch_24">
    <path d="M 378.92977 52476.820939 
L 382.841271 52476.820939 
L 382.841271 207.230004 
L 378.92977 207.230004 
z
" clip-path="url(#p9041774428)" style="fill: #ff7f0e"/>
   </g>
   <g id="patch_25">
    <path d="M 81.655728 52476.820939 
L 85.567229 52476.820939 
L 85.567229 238.019032 
L 81.655728 238.019032 
z
" clip-path="url(#p9041774428)" style="fill: #2ca02c"/>
   </g>
   <g id="patch_26">
    <path d="M 109.036232 52476.820939 
L 112.947733 52476.820939 
L 112.947733 230.033843 
L 109.036232 230.033843 
z
" clip-path="url(#p9041774428)" style="fill: #2ca02c"/>
   </g>
   <g id="patch_27">
    <path d="M 136.416736 52476.820939 
L 140.328237 52476.820939 
L 140.328237 231.17294 
L 136.416736 231.17294 
z
" clip-path="url(#p9041774428)" style="fill: #2ca02c"/>
   </g>
   <g id="patch_28">
    <path d="M 163.79724 52476.820939 
L 167.70874 52476.820939 
L 167.70874 225.414885 
L 163.79724 225.414885 
z
" clip-path="url(#p9041774428)" style="fill: #2ca02c"/>
   </g>
   <g id="patch_29">
    <path d="M 191.177744 52476.820939 
L 195.089244 52476.820939 
L 195.089244 53.568 
L 191.177744 53.568 
z
" clip-path="url(#p9041774428)" style="fill: #2ca02c"/>
   </g>
   <g id="patch_30">
    <path d="M 245.938751 52476.820939 
L 249.850252 52476.820939 
L 249.850252 240.646535 
L 245.938751 240.646535 
z
" clip-path="url(#p9041774428)" style="fill: #2ca02c"/>
   </g>
   <g id="patch_31">
    <path d="M 273.319255 52476.820939 
L 277.230756 52476.820939 
L 277.230756 246.135958 
L 273.319255 246.135958 
z
" clip-path="url(#p9041774428)" style="fill: #2ca02c"/>
   </g>
   <g id="patch_32">
    <path d="M 300.699759 52476.820939 
L 304.61126 52476.820939 
L 304.61126 273.170641 
L 300.699759 273.170641 
z
" clip-path="url(#p9041774428)" style="fill: #2ca02c"/>
   </g>
   <g id="patch_33">
    <path d="M 328.080263 52476.820939 
L 331.991763 52476.820939 
L 331.991763 250.698717 
L 328.080263 250.698717 
z
" clip-path="url(#p9041774428)" style="fill: #2ca02c"/>
   </g>
   <g id="patch_34">
    <path d="M 355.460767 52476.820939 
L 359.372267 52476.820939 
L 359.372267 258.591934 
L 355.460767 258.591934 
z
" clip-path="url(#p9041774428)" style="fill: #2ca02c"/>
   </g>
   <g id="patch_35">
    <path d="M 382.841271 52476.820939 
L 386.752771 52476.820939 
L 386.752771 259.689781 
L 382.841271 259.689781 
z
" clip-path="url(#p9041774428)" style="fill: #2ca02c"/>
   </g>
   <g id="patch_36">
    <path d="M 85.567229 52476.820939 
L 89.478729 52476.820939 
L 89.478729 169.181599 
L 85.567229 169.181599 
z
" clip-path="url(#p9041774428)" style="fill: #d62728"/>
   </g>
   <g id="patch_37">
    <path d="M 112.947733 52476.820939 
L 116.859233 52476.820939 
L 116.859233 172.231097 
L 112.947733 172.231097 
z
" clip-path="url(#p9041774428)" style="fill: #d62728"/>
   </g>
   <g id="patch_38">
    <path d="M 140.328237 52476.820939 
L 144.239737 52476.820939 
L 144.239737 178.357936 
L 140.328237 178.357936 
z
" clip-path="url(#p9041774428)" style="fill: #d62728"/>
   </g>
   <g id="patch_39">
    <path d="M 167.70874 52476.820939 
L 171.620241 52476.820939 
L 171.620241 165.776602 
L 167.70874 165.776602 
z
" clip-path="url(#p9041774428)" style="fill: #d62728"/>
   </g>
   <g id="patch_40">
    <path d="M 195.089244 52476.820939 
L 199.000745 52476.820939 
L 199.000745 119.743227 
L 195.089244 119.743227 
z
" clip-path="url(#p9041774428)" style="fill: #d62728"/>
   </g>
   <g id="patch_41">
    <path d="M 249.850252 52476.820939 
L 253.761752 52476.820939 
L 253.761752 175.59006 
L 249.850252 175.59006 
z
" clip-path="url(#p9041774428)" style="fill: #d62728"/>
   </g>
   <g id="patch_42">
    <path d="M 277.230756 52476.820939 
L 281.142256 52476.820939 
L 281.142256 178.105861 
L 277.230756 178.105861 
z
" clip-path="url(#p9041774428)" style="fill: #d62728"/>
   </g>
   <g id="patch_43">
    <path d="M 304.61126 52476.820939 
L 308.52276 52476.820939 
L 308.52276 179.718412 
L 304.61126 179.718412 
z
" clip-path="url(#p9041774428)" style="fill: #d62728"/>
   </g>
   <g id="patch_44">
    <path d="M 331.991763 52476.820939 
L 335.903264 52476.820939 
L 335.903264 198.955875 
L 331.991763 198.955875 
z
" clip-path="url(#p9041774428)" style="fill: #d62728"/>
   </g>
   <g id="patch_45">
    <path d="M 359.372267 52476.820939 
L 363.283768 52476.820939 
L 363.283768 211.819522 
L 359.372267 211.819522 
z
" clip-path="url(#p9041774428)" style="fill: #d62728"/>
   </g>
   <g id="patch_46">
    <path d="M 386.752771 52476.820939 
L 390.664272 52476.820939 
L 390.664272 205.798899 
L 386.752771 205.798899 
z
" clip-path="url(#p9041774428)" style="fill: #d62728"/>
   </g>
   <g id="patch_47">
    <path d="M 89.478729 52476.820939 
L 93.39023 52476.820939 
L 93.39023 259.289555 
L 89.478729 259.289555 
z
" clip-path="url(#p9041774428)" style="fill: #9467bd"/>
   </g>
   <g id="patch_48">
    <path d="M 116.859233 52476.820939 
L 120.770734 52476.820939 
L 120.770734 225.158365 
L 116.859233 225.158365 
z
" clip-path="url(#p9041774428)" style="fill: #9467bd"/>
   </g>
   <g id="patch_49">
    <path d="M 144.239737 52476.820939 
L 148.151238 52476.820939 
L 148.151238 246.186856 
L 144.239737 246.186856 
z
" clip-path="url(#p9041774428)" style="fill: #9467bd"/>
   </g>
   <g id="patch_50">
    <path d="M 171.620241 52476.820939 
L 175.531742 52476.820939 
L 175.531742 252.262089 
L 171.620241 252.262089 
z
" clip-path="url(#p9041774428)" style="fill: #9467bd"/>
   </g>
   <g id="patch_51">
    <path d="M 199.000745 52476.820939 
L 202.912245 52476.820939 
L 202.912245 134.175414 
L 199.000745 134.175414 
z
" clip-path="url(#p9041774428)" style="fill: #9467bd"/>
   </g>
   <g id="patch_52">
    <path d="M 253.761752 52476.820939 
L 257.673253 52476.820939 
L 257.673253 221.148242 
L 253.761752 221.148242 
z
" clip-path="url(#p9041774428)" style="fill: #9467bd"/>
   </g>
   <g id="patch_53">
    <path d="M 281.142256 52476.820939 
L 285.053757 52476.820939 
L 285.053757 243.125523 
L 281.142256 243.125523 
z
" clip-path="url(#p9041774428)" style="fill: #9467bd"/>
   </g>
   <g id="patch_54">
    <path d="M 308.52276 52476.820939 
L 312.434261 52476.820939 
L 312.434261 295.488 
L 308.52276 295.488 
z
" clip-path="url(#p9041774428)" style="fill: #9467bd"/>
   </g>
   <g id="patch_55">
    <path d="M 335.903264 52476.820939 
L 339.814765 52476.820939 
L 339.814765 269.30258 
L 335.903264 269.30258 
z
" clip-path="url(#p9041774428)" style="fill: #9467bd"/>
   </g>
   <g id="patch_56">
    <path d="M 363.283768 52476.820939 
L 367.195268 52476.820939 
L 367.195268 286.815932 
L 363.283768 286.815932 
z
" clip-path="url(#p9041774428)" style="fill: #9467bd"/>
   </g>
   <g id="patch_57">
    <path d="M 390.664272 52476.820939 
L 394.575772 52476.820939 
L 394.575772 286.551161 
L 390.664272 286.551161 
z
" clip-path="url(#p9041774428)" style="fill: #9467bd"/>
   </g>
   <g id="patch_58">
    <path d="M 93.39023 52476.820939 
L 97.301731 52476.820939 
L 97.301731 224.922196 
L 93.39023 224.922196 
z
" clip-path="url(#p9041774428)" style="fill: #8c564b"/>
   </g>
   <g id="patch_59">
    <path d="M 120.770734 52476.820939 
L 124.682234 52476.820939 
L 124.682234 204.653048 
L 120.770734 204.653048 
z
" clip-path="url(#p9041774428)" style="fill: #8c564b"/>
   </g>
   <g id="patch_60">
    <path d="M 148.151238 52476.820939 
L 152.062738 52476.820939 
L 152.062738 216.322388 
L 148.151238 216.322388 
z
" clip-path="url(#p9041774428)" style="fill: #8c564b"/>
   </g>
   <g id="patch_61">
    <path d="M 175.531742 52476.820939 
L 179.443242 52476.820939 
L 179.443242 207.572292 
L 175.531742 207.572292 
z
" clip-path="url(#p9041774428)" style="fill: #8c564b"/>
   </g>
   <g id="patch_62">
    <path d="M 202.912245 52476.820939 
L 206.823746 52476.820939 
L 206.823746 188.494284 
L 202.912245 188.494284 
z
" clip-path="url(#p9041774428)" style="fill: #8c564b"/>
   </g>
   <g id="patch_63">
    <path d="M 257.673253 52476.820939 
L 261.584754 52476.820939 
L 261.584754 183.054374 
L 257.673253 183.054374 
z
" clip-path="url(#p9041774428)" style="fill: #8c564b"/>
   </g>
   <g id="patch_64">
    <path d="M 285.053757 52476.820939 
L 288.965257 52476.820939 
L 288.965257 198.085859 
L 285.053757 198.085859 
z
" clip-path="url(#p9041774428)" style="fill: #8c564b"/>
   </g>
   <g id="patch_65">
    <path d="M 312.434261 52476.820939 
L 316.345761 52476.820939 
L 316.345761 219.936282 
L 312.434261 219.936282 
z
" clip-path="url(#p9041774428)" style="fill: #8c564b"/>
   </g>
   <g id="patch_66">
    <path d="M 339.814765 52476.820939 
L 343.726265 52476.820939 
L 343.726265 189.926801 
L 339.814765 189.926801 
z
" clip-path="url(#p9041774428)" style="fill: #8c564b"/>
   </g>
   <g id="patch_67">
    <path d="M 367.195268 52476.820939 
L 371.106769 52476.820939 
L 371.106769 199.962414 
L 367.195268 199.962414 
z
" clip-path="url(#p9041774428)" style="fill: #8c564b"/>
   </g>
   <g id="patch_68">
    <path d="M 394.575772 52476.820939 
L 398.487273 52476.820939 
L 398.487273 206.977763 
L 394.575772 206.977763 
z
" clip-path="url(#p9041774428)" style="fill: #8c564b"/>
   </g>
   <g id="matplotlib.axis_1">
    <g id="xtick_1">
     <g id="line2d_1">
      <defs>
       <path id="ma0245294fd" d="M 0 0 
L 0 3.5 
" style="stroke: #000000; stroke-width: 0.8"/>
      </defs>
      <g>
       <use xlink:href="#ma0245294fd" x="110.991982" y="307.584" style="stroke: #000000; stroke-width: 0.8"/>
      </g>
     </g>
     <g id="text_1">
      <!-- 2 -->
      <g transform="translate(107.810732 322.182437)scale(0.1 -0.1)">
       <defs>
        <path id="DejaVuSans-32" d="M 1228 531 
L 3431 531 
L 3431 0 
L 469 0 
L 469 531 
Q 828 903 1448 1529 
Q 2069 2156 2228 2338 
Q 2531 2678 2651 2914 
Q 2772 3150 2772 3378 
Q 2772 3750 2511 3984 
Q 2250 4219 1831 4219 
Q 1534 4219 1204 4116 
Q 875 4013 500 3803 
L 500 4441 
Q 881 4594 1212 4672 
Q 1544 4750 1819 4750 
Q 2544 4750 2975 4387 
Q 3406 4025 3406 3419 
Q 3406 3131 3298 2873 
Q 3191 2616 2906 2266 
Q 2828 2175 2409 1742 
Q 1991 1309 1228 531 
z
" transform="scale(0.015625)"/>
       </defs>
       <use xlink:href="#DejaVuSans-32"/>
      </g>
     </g>
    </g>
    <g id="xtick_2">
     <g id="line2d_2">
      <g>
       <use xlink:href="#ma0245294fd" x="165.75299" y="307.584" style="stroke: #000000; stroke-width: 0.8"/>
      </g>
     </g>
     <g id="text_2">
      <!-- 4 -->
      <g transform="translate(162.57174 322.182437)scale(0.1 -0.1)">
       <defs>
        <path id="DejaVuSans-34" d="M 2419 4116 
L 825 1625 
L 2419 1625 
L 2419 4116 
z
M 2253 4666 
L 3047 4666 
L 3047 1625 
L 3713 1625 
L 3713 1100 
L 3047 1100 
L 3047 0 
L 2419 0 
L 2419 1100 
L 313 1100 
L 313 1709 
L 2253 4666 
z
" transform="scale(0.015625)"/>
       </defs>
       <use xlink:href="#DejaVuSans-34"/>
      </g>
     </g>
    </g>
    <g id="xtick_3">
     <g id="line2d_3">
      <g>
       <use xlink:href="#ma0245294fd" x="220.513998" y="307.584" style="stroke: #000000; stroke-width: 0.8"/>
      </g>
     </g>
     <g id="text_3">
      <!-- 6 -->
      <g transform="translate(217.332748 322.182437)scale(0.1 -0.1)">
       <defs>
        <path id="DejaVuSans-36" d="M 2113 2584 
Q 1688 2584 1439 2293 
Q 1191 2003 1191 1497 
Q 1191 994 1439 701 
Q 1688 409 2113 409 
Q 2538 409 2786 701 
Q 3034 994 3034 1497 
Q 3034 2003 2786 2293 
Q 2538 2584 2113 2584 
z
M 3366 4563 
L 3366 3988 
Q 3128 4100 2886 4159 
Q 2644 4219 2406 4219 
Q 1781 4219 1451 3797 
Q 1122 3375 1075 2522 
Q 1259 2794 1537 2939 
Q 1816 3084 2150 3084 
Q 2853 3084 3261 2657 
Q 3669 2231 3669 1497 
Q 3669 778 3244 343 
Q 2819 -91 2113 -91 
Q 1303 -91 875 529 
Q 447 1150 447 2328 
Q 447 3434 972 4092 
Q 1497 4750 2381 4750 
Q 2619 4750 2861 4703 
Q 3103 4656 3366 4563 
z
" transform="scale(0.015625)"/>
       </defs>
       <use xlink:href="#DejaVuSans-36"/>
      </g>
     </g>
    </g>
    <g id="xtick_4">
     <g id="line2d_4">
      <g>
       <use xlink:href="#ma0245294fd" x="275.275005" y="307.584" style="stroke: #000000; stroke-width: 0.8"/>
      </g>
     </g>
     <g id="text_4">
      <!-- 8 -->
      <g transform="translate(272.093755 322.182437)scale(0.1 -0.1)">
       <defs>
        <path id="DejaVuSans-38" d="M 2034 2216 
Q 1584 2216 1326 1975 
Q 1069 1734 1069 1313 
Q 1069 891 1326 650 
Q 1584 409 2034 409 
Q 2484 409 2743 651 
Q 3003 894 3003 1313 
Q 3003 1734 2745 1975 
Q 2488 2216 2034 2216 
z
M 1403 2484 
Q 997 2584 770 2862 
Q 544 3141 544 3541 
Q 544 4100 942 4425 
Q 1341 4750 2034 4750 
Q 2731 4750 3128 4425 
Q 3525 4100 3525 3541 
Q 3525 3141 3298 2862 
Q 3072 2584 2669 2484 
Q 3125 2378 3379 2068 
Q 3634 1759 3634 1313 
Q 3634 634 3220 271 
Q 2806 -91 2034 -91 
Q 1263 -91 848 271 
Q 434 634 434 1313 
Q 434 1759 690 2068 
Q 947 2378 1403 2484 
z
M 1172 3481 
Q 1172 3119 1398 2916 
Q 1625 2713 2034 2713 
Q 2441 2713 2670 2916 
Q 2900 3119 2900 3481 
Q 2900 3844 2670 4047 
Q 2441 4250 2034 4250 
Q 1625 4250 1398 4047 
Q 1172 3844 1172 3481 
z
" transform="scale(0.015625)"/>
       </defs>
       <use xlink:href="#DejaVuSans-38"/>
      </g>
     </g>
    </g>
    <g id="xtick_5">
     <g id="line2d_5">
      <g>
       <use xlink:href="#ma0245294fd" x="330.036013" y="307.584" style="stroke: #000000; stroke-width: 0.8"/>
      </g>
     </g>
     <g id="text_5">
      <!-- 10 -->
      <g transform="translate(323.673513 322.182437)scale(0.1 -0.1)">
       <defs>
        <path id="DejaVuSans-31" d="M 794 531 
L 1825 531 
L 1825 4091 
L 703 3866 
L 703 4441 
L 1819 4666 
L 2450 4666 
L 2450 531 
L 3481 531 
L 3481 0 
L 794 0 
L 794 531 
z
" transform="scale(0.015625)"/>
        <path id="DejaVuSans-30" d="M 2034 4250 
Q 1547 4250 1301 3770 
Q 1056 3291 1056 2328 
Q 1056 1369 1301 889 
Q 1547 409 2034 409 
Q 2525 409 2770 889 
Q 3016 1369 3016 2328 
Q 3016 3291 2770 3770 
Q 2525 4250 2034 4250 
z
M 2034 4750 
Q 2819 4750 3233 4129 
Q 3647 3509 3647 2328 
Q 3647 1150 3233 529 
Q 2819 -91 2034 -91 
Q 1250 -91 836 529 
Q 422 1150 422 2328 
Q 422 3509 836 4129 
Q 1250 4750 2034 4750 
z
" transform="scale(0.015625)"/>
       </defs>
       <use xlink:href="#DejaVuSans-31"/>
       <use xlink:href="#DejaVuSans-30" x="63.623047"/>
      </g>
     </g>
    </g>
    <g id="xtick_6">
     <g id="line2d_6">
      <g>
       <use xlink:href="#ma0245294fd" x="384.797021" y="307.584" style="stroke: #000000; stroke-width: 0.8"/>
      </g>
     </g>
     <g id="text_6">
      <!-- 12 -->
      <g transform="translate(378.434521 322.182437)scale(0.1 -0.1)">
       <use xlink:href="#DejaVuSans-31"/>
       <use xlink:href="#DejaVuSans-32" x="63.623047"/>
      </g>
     </g>
    </g>
    <g id="text_7">
     <!-- query id -->
     <g transform="translate(215.573281 335.860562)scale(0.1 -0.1)">
      <defs>
       <path id="DejaVuSans-71" d="M 947 1747 
Q 947 1113 1208 752 
Q 1469 391 1925 391 
Q 2381 391 2643 752 
Q 2906 1113 2906 1747 
Q 2906 2381 2643 2742 
Q 2381 3103 1925 3103 
Q 1469 3103 1208 2742 
Q 947 2381 947 1747 
z
M 2906 525 
Q 2725 213 2448 61 
Q 2172 -91 1784 -91 
Q 1150 -91 751 415 
Q 353 922 353 1747 
Q 353 2572 751 3078 
Q 1150 3584 1784 3584 
Q 2172 3584 2448 3432 
Q 2725 3281 2906 2969 
L 2906 3500 
L 3481 3500 
L 3481 -1331 
L 2906 -1331 
L 2906 525 
z
" transform="scale(0.015625)"/>
       <path id="DejaVuSans-75" d="M 544 1381 
L 544 3500 
L 1119 3500 
L 1119 1403 
Q 1119 906 1312 657 
Q 1506 409 1894 409 
Q 2359 409 2629 706 
Q 2900 1003 2900 1516 
L 2900 3500 
L 3475 3500 
L 3475 0 
L 2900 0 
L 2900 538 
Q 2691 219 2414 64 
Q 2138 -91 1772 -91 
Q 1169 -91 856 284 
Q 544 659 544 1381 
z
M 1991 3584 
L 1991 3584 
z
" transform="scale(0.015625)"/>
       <path id="DejaVuSans-65" d="M 3597 1894 
L 3597 1613 
L 953 1613 
Q 991 1019 1311 708 
Q 1631 397 2203 397 
Q 2534 397 2845 478 
Q 3156 559 3463 722 
L 3463 178 
Q 3153 47 2828 -22 
Q 2503 -91 2169 -91 
Q 1331 -91 842 396 
Q 353 884 353 1716 
Q 353 2575 817 3079 
Q 1281 3584 2069 3584 
Q 2775 3584 3186 3129 
Q 3597 2675 3597 1894 
z
M 3022 2063 
Q 3016 2534 2758 2815 
Q 2500 3097 2075 3097 
Q 1594 3097 1305 2825 
Q 1016 2553 972 2059 
L 3022 2063 
z
" transform="scale(0.015625)"/>
       <path id="DejaVuSans-72" d="M 2631 2963 
Q 2534 3019 2420 3045 
Q 2306 3072 2169 3072 
Q 1681 3072 1420 2755 
Q 1159 2438 1159 1844 
L 1159 0 
L 581 0 
L 581 3500 
L 1159 3500 
L 1159 2956 
Q 1341 3275 1631 3429 
Q 1922 3584 2338 3584 
Q 2397 3584 2469 3576 
Q 2541 3569 2628 3553 
L 2631 2963 
z
" transform="scale(0.015625)"/>
       <path id="DejaVuSans-79" d="M 2059 -325 
Q 1816 -950 1584 -1140 
Q 1353 -1331 966 -1331 
L 506 -1331 
L 506 -850 
L 844 -850 
Q 1081 -850 1212 -737 
Q 1344 -625 1503 -206 
L 1606 56 
L 191 3500 
L 800 3500 
L 1894 763 
L 2988 3500 
L 3597 3500 
L 2059 -325 
z
" transform="scale(0.015625)"/>
       <path id="DejaVuSans-20" transform="scale(0.015625)"/>
       <path id="DejaVuSans-69" d="M 603 3500 
L 1178 3500 
L 1178 0 
L 603 0 
L 603 3500 
z
M 603 4863 
L 1178 4863 
L 1178 4134 
L 603 4134 
L 603 4863 
z
" transform="scale(0.015625)"/>
       <path id="DejaVuSans-64" d="M 2906 2969 
L 2906 4863 
L 3481 4863 
L 3481 0 
L 2906 0 
L 2906 525 
Q 2725 213 2448 61 
Q 2172 -91 1784 -91 
Q 1150 -91 751 415 
Q 353 922 353 1747 
Q 353 2572 751 3078 
Q 1150 3584 1784 3584 
Q 2172 3584 2448 3432 
Q 2725 3281 2906 2969 
z
M 947 1747 
Q 947 1113 1208 752 
Q 1469 391 1925 391 
Q 2381 391 2643 752 
Q 2906 1113 2906 1747 
Q 2906 2381 2643 2742 
Q 2381 3103 1925 3103 
Q 1469 3103 1208 2742 
Q 947 2381 947 1747 
z
" transform="scale(0.015625)"/>
      </defs>
      <use xlink:href="#DejaVuSans-71"/>
      <use xlink:href="#DejaVuSans-75" x="63.476562"/>
      <use xlink:href="#DejaVuSans-65" x="126.855469"/>
      <use xlink:href="#DejaVuSans-72" x="188.378906"/>
      <use xlink:href="#DejaVuSans-79" x="229.492188"/>
      <use xlink:href="#DejaVuSans-20" x="288.671875"/>
      <use xlink:href="#DejaVuSans-69" x="320.458984"/>
      <use xlink:href="#DejaVuSans-64" x="348.242188"/>
     </g>
    </g>
   </g>
   <g id="matplotlib.axis_2">
    <g id="ytick_1">
     <g id="line2d_7">
      <defs>
       <path id="m78ba039b6d" d="M 0 0 
L -3.5 0 
" style="stroke: #000000; stroke-width: 0.8"/>
      </defs>
      <g>
       <use xlink:href="#m78ba039b6d" x="57.6" y="290.865599" style="stroke: #000000; stroke-width: 0.8"/>
      </g>
     </g>
     <g id="text_8">
      <!-- $\mathdefault{10^{-3}}$ -->
      <g transform="translate(27.1 294.664818)scale(0.1 -0.1)">
       <defs>
        <path id="DejaVuSans-2212" d="M 678 2272 
L 4684 2272 
L 4684 1741 
L 678 1741 
L 678 2272 
z
" transform="scale(0.015625)"/>
        <path id="DejaVuSans-33" d="M 2597 2516 
Q 3050 2419 3304 2112 
Q 3559 1806 3559 1356 
Q 3559 666 3084 287 
Q 2609 -91 1734 -91 
Q 1441 -91 1130 -33 
Q 819 25 488 141 
L 488 750 
Q 750 597 1062 519 
Q 1375 441 1716 441 
Q 2309 441 2620 675 
Q 2931 909 2931 1356 
Q 2931 1769 2642 2001 
Q 2353 2234 1838 2234 
L 1294 2234 
L 1294 2753 
L 1863 2753 
Q 2328 2753 2575 2939 
Q 2822 3125 2822 3475 
Q 2822 3834 2567 4026 
Q 2313 4219 1838 4219 
Q 1578 4219 1281 4162 
Q 984 4106 628 3988 
L 628 4550 
Q 988 4650 1302 4700 
Q 1616 4750 1894 4750 
Q 2613 4750 3031 4423 
Q 3450 4097 3450 3541 
Q 3450 3153 3228 2886 
Q 3006 2619 2597 2516 
z
" transform="scale(0.015625)"/>
       </defs>
       <use xlink:href="#DejaVuSans-31" transform="translate(0 0.765625)"/>
       <use xlink:href="#DejaVuSans-30" transform="translate(63.623047 0.765625)"/>
       <use xlink:href="#DejaVuSans-2212" transform="translate(128.203125 39.046875)scale(0.7)"/>
       <use xlink:href="#DejaVuSans-33" transform="translate(186.855469 39.046875)scale(0.7)"/>
      </g>
     </g>
    </g>
    <g id="ytick_2">
     <g id="line2d_8">
      <g>
       <use xlink:href="#m78ba039b6d" x="57.6" y="238.522615" style="stroke: #000000; stroke-width: 0.8"/>
      </g>
     </g>
     <g id="text_9">
      <!-- $\mathdefault{10^{-2}}$ -->
      <g transform="translate(27.1 242.321834)scale(0.1 -0.1)">
       <use xlink:href="#DejaVuSans-31" transform="translate(0 0.765625)"/>
       <use xlink:href="#DejaVuSans-30" transform="translate(63.623047 0.765625)"/>
       <use xlink:href="#DejaVuSans-2212" transform="translate(128.203125 39.046875)scale(0.7)"/>
       <use xlink:href="#DejaVuSans-32" transform="translate(186.855469 39.046875)scale(0.7)"/>
      </g>
     </g>
    </g>
    <g id="ytick_3">
     <g id="line2d_9">
      <g>
       <use xlink:href="#m78ba039b6d" x="57.6" y="186.179631" style="stroke: #000000; stroke-width: 0.8"/>
      </g>
     </g>
     <g id="text_10">
      <!-- $\mathdefault{10^{-1}}$ -->
      <g transform="translate(27.1 189.97885)scale(0.1 -0.1)">
       <use xlink:href="#DejaVuSans-31" transform="translate(0 0.684375)"/>
       <use xlink:href="#DejaVuSans-30" transform="translate(63.623047 0.684375)"/>
       <use xlink:href="#DejaVuSans-2212" transform="translate(128.203125 38.965625)scale(0.7)"/>
       <use xlink:href="#DejaVuSans-31" transform="translate(186.855469 38.965625)scale(0.7)"/>
      </g>
     </g>
    </g>
    <g id="ytick_4">
     <g id="line2d_10">
      <g>
       <use xlink:href="#m78ba039b6d" x="57.6" y="133.836646" style="stroke: #000000; stroke-width: 0.8"/>
      </g>
     </g>
     <g id="text_11">
      <!-- $\mathdefault{10^{0}}$ -->
      <g transform="translate(33 137.635865)scale(0.1 -0.1)">
       <use xlink:href="#DejaVuSans-31" transform="translate(0 0.765625)"/>
       <use xlink:href="#DejaVuSans-30" transform="translate(63.623047 0.765625)"/>
       <use xlink:href="#DejaVuSans-30" transform="translate(128.203125 39.046875)scale(0.7)"/>
      </g>
     </g>
    </g>
    <g id="ytick_5">
     <g id="line2d_11">
      <g>
       <use xlink:href="#m78ba039b6d" x="57.6" y="81.493662" style="stroke: #000000; stroke-width: 0.8"/>
      </g>
     </g>
     <g id="text_12">
      <!-- $\mathdefault{10^{1}}$ -->
      <g transform="translate(33 85.292881)scale(0.1 -0.1)">
       <use xlink:href="#DejaVuSans-31" transform="translate(0 0.684375)"/>
       <use xlink:href="#DejaVuSans-30" transform="translate(63.623047 0.684375)"/>
       <use xlink:href="#DejaVuSans-31" transform="translate(128.203125 38.965625)scale(0.7)"/>
      </g>
     </g>
    </g>
    <g id="ytick_6">
     <g id="line2d_12">
      <defs>
       <path id="m6087a8900f" d="M 0 0 
L -2 0 
" style="stroke: #000000; stroke-width: 0.6"/>
      </defs>
      <g>
       <use xlink:href="#m6087a8900f" x="57.6" y="306.622408" style="stroke: #000000; stroke-width: 0.6"/>
      </g>
     </g>
    </g>
    <g id="ytick_7">
     <g id="line2d_13">
      <g>
       <use xlink:href="#m6087a8900f" x="57.6" y="302.477825" style="stroke: #000000; stroke-width: 0.6"/>
      </g>
     </g>
    </g>
    <g id="ytick_8">
     <g id="line2d_14">
      <g>
       <use xlink:href="#m6087a8900f" x="57.6" y="298.97363" style="stroke: #000000; stroke-width: 0.6"/>
      </g>
     </g>
    </g>
    <g id="ytick_9">
     <g id="line2d_15">
      <g>
       <use xlink:href="#m6087a8900f" x="57.6" y="295.938159" style="stroke: #000000; stroke-width: 0.6"/>
      </g>
     </g>
    </g>
    <g id="ytick_10">
     <g id="line2d_16">
      <g>
       <use xlink:href="#m6087a8900f" x="57.6" y="293.260683" style="stroke: #000000; stroke-width: 0.6"/>
      </g>
     </g>
    </g>
    <g id="ytick_11">
     <g id="line2d_17">
      <g>
       <use xlink:href="#m6087a8900f" x="57.6" y="275.108791" style="stroke: #000000; stroke-width: 0.6"/>
      </g>
     </g>
    </g>
    <g id="ytick_12">
     <g id="line2d_18">
      <g>
       <use xlink:href="#m6087a8900f" x="57.6" y="265.891649" style="stroke: #000000; stroke-width: 0.6"/>
      </g>
     </g>
    </g>
    <g id="ytick_13">
     <g id="line2d_19">
      <g>
       <use xlink:href="#m6087a8900f" x="57.6" y="259.351983" style="stroke: #000000; stroke-width: 0.6"/>
      </g>
     </g>
    </g>
    <g id="ytick_14">
     <g id="line2d_20">
      <g>
       <use xlink:href="#m6087a8900f" x="57.6" y="254.279423" style="stroke: #000000; stroke-width: 0.6"/>
      </g>
     </g>
    </g>
    <g id="ytick_15">
     <g id="line2d_21">
      <g>
       <use xlink:href="#m6087a8900f" x="57.6" y="250.134841" style="stroke: #000000; stroke-width: 0.6"/>
      </g>
     </g>
    </g>
    <g id="ytick_16">
     <g id="line2d_22">
      <g>
       <use xlink:href="#m6087a8900f" x="57.6" y="246.630646" style="stroke: #000000; stroke-width: 0.6"/>
      </g>
     </g>
    </g>
    <g id="ytick_17">
     <g id="line2d_23">
      <g>
       <use xlink:href="#m6087a8900f" x="57.6" y="243.595174" style="stroke: #000000; stroke-width: 0.6"/>
      </g>
     </g>
    </g>
    <g id="ytick_18">
     <g id="line2d_24">
      <g>
       <use xlink:href="#m6087a8900f" x="57.6" y="240.917699" style="stroke: #000000; stroke-width: 0.6"/>
      </g>
     </g>
    </g>
    <g id="ytick_19">
     <g id="line2d_25">
      <g>
       <use xlink:href="#m6087a8900f" x="57.6" y="222.765807" style="stroke: #000000; stroke-width: 0.6"/>
      </g>
     </g>
    </g>
    <g id="ytick_20">
     <g id="line2d_26">
      <g>
       <use xlink:href="#m6087a8900f" x="57.6" y="213.548665" style="stroke: #000000; stroke-width: 0.6"/>
      </g>
     </g>
    </g>
    <g id="ytick_21">
     <g id="line2d_27">
      <g>
       <use xlink:href="#m6087a8900f" x="57.6" y="207.008998" style="stroke: #000000; stroke-width: 0.6"/>
      </g>
     </g>
    </g>
    <g id="ytick_22">
     <g id="line2d_28">
      <g>
       <use xlink:href="#m6087a8900f" x="57.6" y="201.936439" style="stroke: #000000; stroke-width: 0.6"/>
      </g>
     </g>
    </g>
    <g id="ytick_23">
     <g id="line2d_29">
      <g>
       <use xlink:href="#m6087a8900f" x="57.6" y="197.791856" style="stroke: #000000; stroke-width: 0.6"/>
      </g>
     </g>
    </g>
    <g id="ytick_24">
     <g id="line2d_30">
      <g>
       <use xlink:href="#m6087a8900f" x="57.6" y="194.287662" style="stroke: #000000; stroke-width: 0.6"/>
      </g>
     </g>
    </g>
    <g id="ytick_25">
     <g id="line2d_31">
      <g>
       <use xlink:href="#m6087a8900f" x="57.6" y="191.25219" style="stroke: #000000; stroke-width: 0.6"/>
      </g>
     </g>
    </g>
    <g id="ytick_26">
     <g id="line2d_32">
      <g>
       <use xlink:href="#m6087a8900f" x="57.6" y="188.574714" style="stroke: #000000; stroke-width: 0.6"/>
      </g>
     </g>
    </g>
    <g id="ytick_27">
     <g id="line2d_33">
      <g>
       <use xlink:href="#m6087a8900f" x="57.6" y="170.422822" style="stroke: #000000; stroke-width: 0.6"/>
      </g>
     </g>
    </g>
    <g id="ytick_28">
     <g id="line2d_34">
      <g>
       <use xlink:href="#m6087a8900f" x="57.6" y="161.20568" style="stroke: #000000; stroke-width: 0.6"/>
      </g>
     </g>
    </g>
    <g id="ytick_29">
     <g id="line2d_35">
      <g>
       <use xlink:href="#m6087a8900f" x="57.6" y="154.666014" style="stroke: #000000; stroke-width: 0.6"/>
      </g>
     </g>
    </g>
    <g id="ytick_30">
     <g id="line2d_36">
      <g>
       <use xlink:href="#m6087a8900f" x="57.6" y="149.593455" style="stroke: #000000; stroke-width: 0.6"/>
      </g>
     </g>
    </g>
    <g id="ytick_31">
     <g id="line2d_37">
      <g>
       <use xlink:href="#m6087a8900f" x="57.6" y="145.448872" style="stroke: #000000; stroke-width: 0.6"/>
      </g>
     </g>
    </g>
    <g id="ytick_32">
     <g id="line2d_38">
      <g>
       <use xlink:href="#m6087a8900f" x="57.6" y="141.944677" style="stroke: #000000; stroke-width: 0.6"/>
      </g>
     </g>
    </g>
    <g id="ytick_33">
     <g id="line2d_39">
      <g>
       <use xlink:href="#m6087a8900f" x="57.6" y="138.909206" style="stroke: #000000; stroke-width: 0.6"/>
      </g>
     </g>
    </g>
    <g id="ytick_34">
     <g id="line2d_40">
      <g>
       <use xlink:href="#m6087a8900f" x="57.6" y="136.23173" style="stroke: #000000; stroke-width: 0.6"/>
      </g>
     </g>
    </g>
    <g id="ytick_35">
     <g id="line2d_41">
      <g>
       <use xlink:href="#m6087a8900f" x="57.6" y="118.079838" style="stroke: #000000; stroke-width: 0.6"/>
      </g>
     </g>
    </g>
    <g id="ytick_36">
     <g id="line2d_42">
      <g>
       <use xlink:href="#m6087a8900f" x="57.6" y="108.862696" style="stroke: #000000; stroke-width: 0.6"/>
      </g>
     </g>
    </g>
    <g id="ytick_37">
     <g id="line2d_43">
      <g>
       <use xlink:href="#m6087a8900f" x="57.6" y="102.32303" style="stroke: #000000; stroke-width: 0.6"/>
      </g>
     </g>
    </g>
    <g id="ytick_38">
     <g id="line2d_44">
      <g>
       <use xlink:href="#m6087a8900f" x="57.6" y="97.250471" style="stroke: #000000; stroke-width: 0.6"/>
      </g>
     </g>
    </g>
    <g id="ytick_39">
     <g id="line2d_45">
      <g>
       <use xlink:href="#m6087a8900f" x="57.6" y="93.105888" style="stroke: #000000; stroke-width: 0.6"/>
      </g>
     </g>
    </g>
    <g id="ytick_40">
     <g id="line2d_46">
      <g>
       <use xlink:href="#m6087a8900f" x="57.6" y="89.601693" style="stroke: #000000; stroke-width: 0.6"/>
      </g>
     </g>
    </g>
    <g id="ytick_41">
     <g id="line2d_47">
      <g>
       <use xlink:href="#m6087a8900f" x="57.6" y="86.566221" style="stroke: #000000; stroke-width: 0.6"/>
      </g>
     </g>
    </g>
    <g id="ytick_42">
     <g id="line2d_48">
      <g>
       <use xlink:href="#m6087a8900f" x="57.6" y="83.888746" style="stroke: #000000; stroke-width: 0.6"/>
      </g>
     </g>
    </g>
    <g id="ytick_43">
     <g id="line2d_49">
      <g>
       <use xlink:href="#m6087a8900f" x="57.6" y="65.736854" style="stroke: #000000; stroke-width: 0.6"/>
      </g>
     </g>
    </g>
    <g id="ytick_44">
     <g id="line2d_50">
      <g>
       <use xlink:href="#m6087a8900f" x="57.6" y="56.519712" style="stroke: #000000; stroke-width: 0.6"/>
      </g>
     </g>
    </g>
    <g id="ytick_45">
     <g id="line2d_51">
      <g>
       <use xlink:href="#m6087a8900f" x="57.6" y="49.980046" style="stroke: #000000; stroke-width: 0.6"/>
      </g>
     </g>
    </g>
    <g id="ytick_46">
     <g id="line2d_52">
      <g>
       <use xlink:href="#m6087a8900f" x="57.6" y="44.907486" style="stroke: #000000; stroke-width: 0.6"/>
      </g>
     </g>
    </g>
    <g id="text_13">
     <!-- execution time (s) -->
     <g transform="translate(21.020312 219.872531)rotate(-90)scale(0.1 -0.1)">
      <defs>
       <path id="DejaVuSans-78" d="M 3513 3500 
L 2247 1797 
L 3578 0 
L 2900 0 
L 1881 1375 
L 863 0 
L 184 0 
L 1544 1831 
L 300 3500 
L 978 3500 
L 1906 2253 
L 2834 3500 
L 3513 3500 
z
" transform="scale(0.015625)"/>
       <path id="DejaVuSans-63" d="M 3122 3366 
L 3122 2828 
Q 2878 2963 2633 3030 
Q 2388 3097 2138 3097 
Q 1578 3097 1268 2742 
Q 959 2388 959 1747 
Q 959 1106 1268 751 
Q 1578 397 2138 397 
Q 2388 397 2633 464 
Q 2878 531 3122 666 
L 3122 134 
Q 2881 22 2623 -34 
Q 2366 -91 2075 -91 
Q 1284 -91 818 406 
Q 353 903 353 1747 
Q 353 2603 823 3093 
Q 1294 3584 2113 3584 
Q 2378 3584 2631 3529 
Q 2884 3475 3122 3366 
z
" transform="scale(0.015625)"/>
       <path id="DejaVuSans-74" d="M 1172 4494 
L 1172 3500 
L 2356 3500 
L 2356 3053 
L 1172 3053 
L 1172 1153 
Q 1172 725 1289 603 
Q 1406 481 1766 481 
L 2356 481 
L 2356 0 
L 1766 0 
Q 1100 0 847 248 
Q 594 497 594 1153 
L 594 3053 
L 172 3053 
L 172 3500 
L 594 3500 
L 594 4494 
L 1172 4494 
z
" transform="scale(0.015625)"/>
       <path id="DejaVuSans-6f" d="M 1959 3097 
Q 1497 3097 1228 2736 
Q 959 2375 959 1747 
Q 959 1119 1226 758 
Q 1494 397 1959 397 
Q 2419 397 2687 759 
Q 2956 1122 2956 1747 
Q 2956 2369 2687 2733 
Q 2419 3097 1959 3097 
z
M 1959 3584 
Q 2709 3584 3137 3096 
Q 3566 2609 3566 1747 
Q 3566 888 3137 398 
Q 2709 -91 1959 -91 
Q 1206 -91 779 398 
Q 353 888 353 1747 
Q 353 2609 779 3096 
Q 1206 3584 1959 3584 
z
" transform="scale(0.015625)"/>
       <path id="DejaVuSans-6e" d="M 3513 2113 
L 3513 0 
L 2938 0 
L 2938 2094 
Q 2938 2591 2744 2837 
Q 2550 3084 2163 3084 
Q 1697 3084 1428 2787 
Q 1159 2491 1159 1978 
L 1159 0 
L 581 0 
L 581 3500 
L 1159 3500 
L 1159 2956 
Q 1366 3272 1645 3428 
Q 1925 3584 2291 3584 
Q 2894 3584 3203 3211 
Q 3513 2838 3513 2113 
z
" transform="scale(0.015625)"/>
       <path id="DejaVuSans-6d" d="M 3328 2828 
Q 3544 3216 3844 3400 
Q 4144 3584 4550 3584 
Q 5097 3584 5394 3201 
Q 5691 2819 5691 2113 
L 5691 0 
L 5113 0 
L 5113 2094 
Q 5113 2597 4934 2840 
Q 4756 3084 4391 3084 
Q 3944 3084 3684 2787 
Q 3425 2491 3425 1978 
L 3425 0 
L 2847 0 
L 2847 2094 
Q 2847 2600 2669 2842 
Q 2491 3084 2119 3084 
Q 1678 3084 1418 2786 
Q 1159 2488 1159 1978 
L 1159 0 
L 581 0 
L 581 3500 
L 1159 3500 
L 1159 2956 
Q 1356 3278 1631 3431 
Q 1906 3584 2284 3584 
Q 2666 3584 2933 3390 
Q 3200 3197 3328 2828 
z
" transform="scale(0.015625)"/>
       <path id="DejaVuSans-28" d="M 1984 4856 
Q 1566 4138 1362 3434 
Q 1159 2731 1159 2009 
Q 1159 1288 1364 580 
Q 1569 -128 1984 -844 
L 1484 -844 
Q 1016 -109 783 600 
Q 550 1309 550 2009 
Q 550 2706 781 3412 
Q 1013 4119 1484 4856 
L 1984 4856 
z
" transform="scale(0.015625)"/>
       <path id="DejaVuSans-73" d="M 2834 3397 
L 2834 2853 
Q 2591 2978 2328 3040 
Q 2066 3103 1784 3103 
Q 1356 3103 1142 2972 
Q 928 2841 928 2578 
Q 928 2378 1081 2264 
Q 1234 2150 1697 2047 
L 1894 2003 
Q 2506 1872 2764 1633 
Q 3022 1394 3022 966 
Q 3022 478 2636 193 
Q 2250 -91 1575 -91 
Q 1294 -91 989 -36 
Q 684 19 347 128 
L 347 722 
Q 666 556 975 473 
Q 1284 391 1588 391 
Q 1994 391 2212 530 
Q 2431 669 2431 922 
Q 2431 1156 2273 1281 
Q 2116 1406 1581 1522 
L 1381 1569 
Q 847 1681 609 1914 
Q 372 2147 372 2553 
Q 372 3047 722 3315 
Q 1072 3584 1716 3584 
Q 2034 3584 2315 3537 
Q 2597 3491 2834 3397 
z
" transform="scale(0.015625)"/>
       <path id="DejaVuSans-29" d="M 513 4856 
L 1013 4856 
Q 1481 4119 1714 3412 
Q 1947 2706 1947 2009 
Q 1947 1309 1714 600 
Q 1481 -109 1013 -844 
L 513 -844 
Q 928 -128 1133 580 
Q 1338 1288 1338 2009 
Q 1338 2731 1133 3434 
Q 928 4138 513 4856 
z
" transform="scale(0.015625)"/>
      </defs>
      <use xlink:href="#DejaVuSans-65"/>
      <use xlink:href="#DejaVuSans-78" x="59.773438"/>
      <use xlink:href="#DejaVuSans-65" x="115.828125"/>
      <use xlink:href="#DejaVuSans-63" x="177.351562"/>
      <use xlink:href="#DejaVuSans-75" x="232.332031"/>
      <use xlink:href="#DejaVuSans-74" x="295.710938"/>
      <use xlink:href="#DejaVuSans-69" x="334.919922"/>
      <use xlink:href="#DejaVuSans-6f" x="362.703125"/>
      <use xlink:href="#DejaVuSans-6e" x="423.884766"/>
      <use xlink:href="#DejaVuSans-20" x="487.263672"/>
      <use xlink:href="#DejaVuSans-74" x="519.050781"/>
      <use xlink:href="#DejaVuSans-69" x="558.259766"/>
      <use xlink:href="#DejaVuSans-6d" x="586.042969"/>
      <use xlink:href="#DejaVuSans-65" x="683.455078"/>
      <use xlink:href="#DejaVuSans-20" x="744.978516"/>
      <use xlink:href="#DejaVuSans-28" x="776.765625"/>
      <use xlink:href="#DejaVuSans-73" x="815.779297"/>
      <use xlink:href="#DejaVuSans-29" x="867.878906"/>
     </g>
    </g>
   </g>
   <g id="patch_69">
    <path d="M 57.6 307.584 
L 57.6 41.472 
" style="fill: none; stroke: #000000; stroke-width: 0.8; stroke-linejoin: miter; stroke-linecap: square"/>
   </g>
   <g id="patch_70">
    <path d="M 414.72 307.584 
L 414.72 41.472 
" style="fill: none; stroke: #000000; stroke-width: 0.8; stroke-linejoin: miter; stroke-linecap: square"/>
   </g>
   <g id="patch_71">
    <path d="M 57.6 307.584 
L 414.72 307.584 
" style="fill: none; stroke: #000000; stroke-width: 0.8; stroke-linejoin: miter; stroke-linecap: square"/>
   </g>
   <g id="patch_72">
    <path d="M 57.6 41.472 
L 414.72 41.472 
" style="fill: none; stroke: #000000; stroke-width: 0.8; stroke-linejoin: miter; stroke-linecap: square"/>
   </g>
   <g id="legend_1">
    <g id="patch_73">
     <path d="M 210.366875 137.54075 
L 407.72 137.54075 
Q 409.72 137.54075 409.72 135.54075 
L 409.72 48.472 
Q 409.72 46.472 407.72 46.472 
L 210.366875 46.472 
Q 208.366875 46.472 208.366875 48.472 
L 208.366875 135.54075 
Q 208.366875 137.54075 210.366875 137.54075 
z
" style="fill: #ffffff; opacity: 0.8; stroke: #cccccc; stroke-linejoin: miter"/>
    </g>
    <g id="patch_74">
     <path d="M 212.366875 58.070438 
L 232.366875 58.070438 
L 232.366875 51.070438 
L 212.366875 51.070438 
z
" style="fill: #1f77b4"/>
    </g>
    <g id="text_14">
     <!-- blazegraph.2.1.5.100000.16 -->
     <g transform="translate(240.366875 58.070438)scale(0.1 -0.1)">
      <defs>
       <path id="DejaVuSans-62" d="M 3116 1747 
Q 3116 2381 2855 2742 
Q 2594 3103 2138 3103 
Q 1681 3103 1420 2742 
Q 1159 2381 1159 1747 
Q 1159 1113 1420 752 
Q 1681 391 2138 391 
Q 2594 391 2855 752 
Q 3116 1113 3116 1747 
z
M 1159 2969 
Q 1341 3281 1617 3432 
Q 1894 3584 2278 3584 
Q 2916 3584 3314 3078 
Q 3713 2572 3713 1747 
Q 3713 922 3314 415 
Q 2916 -91 2278 -91 
Q 1894 -91 1617 61 
Q 1341 213 1159 525 
L 1159 0 
L 581 0 
L 581 4863 
L 1159 4863 
L 1159 2969 
z
" transform="scale(0.015625)"/>
       <path id="DejaVuSans-6c" d="M 603 4863 
L 1178 4863 
L 1178 0 
L 603 0 
L 603 4863 
z
" transform="scale(0.015625)"/>
       <path id="DejaVuSans-61" d="M 2194 1759 
Q 1497 1759 1228 1600 
Q 959 1441 959 1056 
Q 959 750 1161 570 
Q 1363 391 1709 391 
Q 2188 391 2477 730 
Q 2766 1069 2766 1631 
L 2766 1759 
L 2194 1759 
z
M 3341 1997 
L 3341 0 
L 2766 0 
L 2766 531 
Q 2569 213 2275 61 
Q 1981 -91 1556 -91 
Q 1019 -91 701 211 
Q 384 513 384 1019 
Q 384 1609 779 1909 
Q 1175 2209 1959 2209 
L 2766 2209 
L 2766 2266 
Q 2766 2663 2505 2880 
Q 2244 3097 1772 3097 
Q 1472 3097 1187 3025 
Q 903 2953 641 2809 
L 641 3341 
Q 956 3463 1253 3523 
Q 1550 3584 1831 3584 
Q 2591 3584 2966 3190 
Q 3341 2797 3341 1997 
z
" transform="scale(0.015625)"/>
       <path id="DejaVuSans-7a" d="M 353 3500 
L 3084 3500 
L 3084 2975 
L 922 459 
L 3084 459 
L 3084 0 
L 275 0 
L 275 525 
L 2438 3041 
L 353 3041 
L 353 3500 
z
" transform="scale(0.015625)"/>
       <path id="DejaVuSans-67" d="M 2906 1791 
Q 2906 2416 2648 2759 
Q 2391 3103 1925 3103 
Q 1463 3103 1205 2759 
Q 947 2416 947 1791 
Q 947 1169 1205 825 
Q 1463 481 1925 481 
Q 2391 481 2648 825 
Q 2906 1169 2906 1791 
z
M 3481 434 
Q 3481 -459 3084 -895 
Q 2688 -1331 1869 -1331 
Q 1566 -1331 1297 -1286 
Q 1028 -1241 775 -1147 
L 775 -588 
Q 1028 -725 1275 -790 
Q 1522 -856 1778 -856 
Q 2344 -856 2625 -561 
Q 2906 -266 2906 331 
L 2906 616 
Q 2728 306 2450 153 
Q 2172 0 1784 0 
Q 1141 0 747 490 
Q 353 981 353 1791 
Q 353 2603 747 3093 
Q 1141 3584 1784 3584 
Q 2172 3584 2450 3431 
Q 2728 3278 2906 2969 
L 2906 3500 
L 3481 3500 
L 3481 434 
z
" transform="scale(0.015625)"/>
       <path id="DejaVuSans-70" d="M 1159 525 
L 1159 -1331 
L 581 -1331 
L 581 3500 
L 1159 3500 
L 1159 2969 
Q 1341 3281 1617 3432 
Q 1894 3584 2278 3584 
Q 2916 3584 3314 3078 
Q 3713 2572 3713 1747 
Q 3713 922 3314 415 
Q 2916 -91 2278 -91 
Q 1894 -91 1617 61 
Q 1341 213 1159 525 
z
M 3116 1747 
Q 3116 2381 2855 2742 
Q 2594 3103 2138 3103 
Q 1681 3103 1420 2742 
Q 1159 2381 1159 1747 
Q 1159 1113 1420 752 
Q 1681 391 2138 391 
Q 2594 391 2855 752 
Q 3116 1113 3116 1747 
z
" transform="scale(0.015625)"/>
       <path id="DejaVuSans-68" d="M 3513 2113 
L 3513 0 
L 2938 0 
L 2938 2094 
Q 2938 2591 2744 2837 
Q 2550 3084 2163 3084 
Q 1697 3084 1428 2787 
Q 1159 2491 1159 1978 
L 1159 0 
L 581 0 
L 581 4863 
L 1159 4863 
L 1159 2956 
Q 1366 3272 1645 3428 
Q 1925 3584 2291 3584 
Q 2894 3584 3203 3211 
Q 3513 2838 3513 2113 
z
" transform="scale(0.015625)"/>
       <path id="DejaVuSans-2e" d="M 684 794 
L 1344 794 
L 1344 0 
L 684 0 
L 684 794 
z
" transform="scale(0.015625)"/>
       <path id="DejaVuSans-35" d="M 691 4666 
L 3169 4666 
L 3169 4134 
L 1269 4134 
L 1269 2991 
Q 1406 3038 1543 3061 
Q 1681 3084 1819 3084 
Q 2600 3084 3056 2656 
Q 3513 2228 3513 1497 
Q 3513 744 3044 326 
Q 2575 -91 1722 -91 
Q 1428 -91 1123 -41 
Q 819 9 494 109 
L 494 744 
Q 775 591 1075 516 
Q 1375 441 1709 441 
Q 2250 441 2565 725 
Q 2881 1009 2881 1497 
Q 2881 1984 2565 2268 
Q 2250 2553 1709 2553 
Q 1456 2553 1204 2497 
Q 953 2441 691 2322 
L 691 4666 
z
" transform="scale(0.015625)"/>
      </defs>
      <use xlink:href="#DejaVuSans-62"/>
      <use xlink:href="#DejaVuSans-6c" x="63.476562"/>
      <use xlink:href="#DejaVuSans-61" x="91.259766"/>
      <use xlink:href="#DejaVuSans-7a" x="152.539062"/>
      <use xlink:href="#DejaVuSans-65" x="205.029297"/>
      <use xlink:href="#DejaVuSans-67" x="266.552734"/>
      <use xlink:href="#DejaVuSans-72" x="330.029297"/>
      <use xlink:href="#DejaVuSans-61" x="371.142578"/>
      <use xlink:href="#DejaVuSans-70" x="432.421875"/>
      <use xlink:href="#DejaVuSans-68" x="495.898438"/>
      <use xlink:href="#DejaVuSans-2e" x="559.277344"/>
      <use xlink:href="#DejaVuSans-32" x="591.064453"/>
      <use xlink:href="#DejaVuSans-2e" x="654.6875"/>
      <use xlink:href="#DejaVuSans-31" x="686.474609"/>
      <use xlink:href="#DejaVuSans-2e" x="750.097656"/>
      <use xlink:href="#DejaVuSans-35" x="781.884766"/>
      <use xlink:href="#DejaVuSans-2e" x="845.507812"/>
      <use xlink:href="#DejaVuSans-31" x="877.294922"/>
      <use xlink:href="#DejaVuSans-30" x="940.917969"/>
      <use xlink:href="#DejaVuSans-30" x="1004.541016"/>
      <use xlink:href="#DejaVuSans-30" x="1068.164062"/>
      <use xlink:href="#DejaVuSans-30" x="1131.787109"/>
      <use xlink:href="#DejaVuSans-30" x="1195.410156"/>
      <use xlink:href="#DejaVuSans-2e" x="1259.033203"/>
      <use xlink:href="#DejaVuSans-31" x="1290.820312"/>
      <use xlink:href="#DejaVuSans-36" x="1354.443359"/>
     </g>
    </g>
    <g id="patch_75">
     <path d="M 212.366875 72.748563 
L 232.366875 72.748563 
L 232.366875 65.748563 
L 212.366875 65.748563 
z
" style="fill: #ff7f0e"/>
    </g>
    <g id="text_15">
     <!-- graphdb.9.3.3.100000.16 -->
     <g transform="translate(240.366875 72.748563)scale(0.1 -0.1)">
      <defs>
       <path id="DejaVuSans-39" d="M 703 97 
L 703 672 
Q 941 559 1184 500 
Q 1428 441 1663 441 
Q 2288 441 2617 861 
Q 2947 1281 2994 2138 
Q 2813 1869 2534 1725 
Q 2256 1581 1919 1581 
Q 1219 1581 811 2004 
Q 403 2428 403 3163 
Q 403 3881 828 4315 
Q 1253 4750 1959 4750 
Q 2769 4750 3195 4129 
Q 3622 3509 3622 2328 
Q 3622 1225 3098 567 
Q 2575 -91 1691 -91 
Q 1453 -91 1209 -44 
Q 966 3 703 97 
z
M 1959 2075 
Q 2384 2075 2632 2365 
Q 2881 2656 2881 3163 
Q 2881 3666 2632 3958 
Q 2384 4250 1959 4250 
Q 1534 4250 1286 3958 
Q 1038 3666 1038 3163 
Q 1038 2656 1286 2365 
Q 1534 2075 1959 2075 
z
" transform="scale(0.015625)"/>
      </defs>
      <use xlink:href="#DejaVuSans-67"/>
      <use xlink:href="#DejaVuSans-72" x="63.476562"/>
      <use xlink:href="#DejaVuSans-61" x="104.589844"/>
      <use xlink:href="#DejaVuSans-70" x="165.869141"/>
      <use xlink:href="#DejaVuSans-68" x="229.345703"/>
      <use xlink:href="#DejaVuSans-64" x="292.724609"/>
      <use xlink:href="#DejaVuSans-62" x="356.201172"/>
      <use xlink:href="#DejaVuSans-2e" x="419.677734"/>
      <use xlink:href="#DejaVuSans-39" x="451.464844"/>
      <use xlink:href="#DejaVuSans-2e" x="515.087891"/>
      <use xlink:href="#DejaVuSans-33" x="546.875"/>
      <use xlink:href="#DejaVuSans-2e" x="610.498047"/>
      <use xlink:href="#DejaVuSans-33" x="642.285156"/>
      <use xlink:href="#DejaVuSans-2e" x="705.908203"/>
      <use xlink:href="#DejaVuSans-31" x="737.695312"/>
      <use xlink:href="#DejaVuSans-30" x="801.318359"/>
      <use xlink:href="#DejaVuSans-30" x="864.941406"/>
      <use xlink:href="#DejaVuSans-30" x="928.564453"/>
      <use xlink:href="#DejaVuSans-30" x="992.1875"/>
      <use xlink:href="#DejaVuSans-30" x="1055.810547"/>
      <use xlink:href="#DejaVuSans-2e" x="1119.433594"/>
      <use xlink:href="#DejaVuSans-31" x="1151.220703"/>
      <use xlink:href="#DejaVuSans-36" x="1214.84375"/>
     </g>
    </g>
    <g id="patch_76">
     <path d="M 212.366875 87.426688 
L 232.366875 87.426688 
L 232.366875 80.426688 
L 212.366875 80.426688 
z
" style="fill: #2ca02c"/>
    </g>
    <g id="text_16">
     <!-- jena.4.3.2.100000.16 -->
     <g transform="translate(240.366875 87.426688)scale(0.1 -0.1)">
      <defs>
       <path id="DejaVuSans-6a" d="M 603 3500 
L 1178 3500 
L 1178 -63 
Q 1178 -731 923 -1031 
Q 669 -1331 103 -1331 
L -116 -1331 
L -116 -844 
L 38 -844 
Q 366 -844 484 -692 
Q 603 -541 603 -63 
L 603 3500 
z
M 603 4863 
L 1178 4863 
L 1178 4134 
L 603 4134 
L 603 4863 
z
" transform="scale(0.015625)"/>
      </defs>
      <use xlink:href="#DejaVuSans-6a"/>
      <use xlink:href="#DejaVuSans-65" x="27.783203"/>
      <use xlink:href="#DejaVuSans-6e" x="89.306641"/>
      <use xlink:href="#DejaVuSans-61" x="152.685547"/>
      <use xlink:href="#DejaVuSans-2e" x="213.964844"/>
      <use xlink:href="#DejaVuSans-34" x="245.751953"/>
      <use xlink:href="#DejaVuSans-2e" x="309.375"/>
      <use xlink:href="#DejaVuSans-33" x="341.162109"/>
      <use xlink:href="#DejaVuSans-2e" x="404.785156"/>
      <use xlink:href="#DejaVuSans-32" x="436.572266"/>
      <use xlink:href="#DejaVuSans-2e" x="500.195312"/>
      <use xlink:href="#DejaVuSans-31" x="531.982422"/>
      <use xlink:href="#DejaVuSans-30" x="595.605469"/>
      <use xlink:href="#DejaVuSans-30" x="659.228516"/>
      <use xlink:href="#DejaVuSans-30" x="722.851562"/>
      <use xlink:href="#DejaVuSans-30" x="786.474609"/>
      <use xlink:href="#DejaVuSans-30" x="850.097656"/>
      <use xlink:href="#DejaVuSans-2e" x="913.720703"/>
      <use xlink:href="#DejaVuSans-31" x="945.507812"/>
      <use xlink:href="#DejaVuSans-36" x="1009.130859"/>
     </g>
    </g>
    <g id="patch_77">
     <path d="M 212.366875 102.104813 
L 232.366875 102.104813 
L 232.366875 95.104813 
L 212.366875 95.104813 
z
" style="fill: #d62728"/>
    </g>
    <g id="text_17">
     <!-- oxigraph.0.2.5.100000.16 -->
     <g transform="translate(240.366875 102.104813)scale(0.1 -0.1)">
      <use xlink:href="#DejaVuSans-6f"/>
      <use xlink:href="#DejaVuSans-78" x="58.056641"/>
      <use xlink:href="#DejaVuSans-69" x="117.236328"/>
      <use xlink:href="#DejaVuSans-67" x="145.019531"/>
      <use xlink:href="#DejaVuSans-72" x="208.496094"/>
      <use xlink:href="#DejaVuSans-61" x="249.609375"/>
      <use xlink:href="#DejaVuSans-70" x="310.888672"/>
      <use xlink:href="#DejaVuSans-68" x="374.365234"/>
      <use xlink:href="#DejaVuSans-2e" x="437.744141"/>
      <use xlink:href="#DejaVuSans-30" x="469.53125"/>
      <use xlink:href="#DejaVuSans-2e" x="533.154297"/>
      <use xlink:href="#DejaVuSans-32" x="564.941406"/>
      <use xlink:href="#DejaVuSans-2e" x="628.564453"/>
      <use xlink:href="#DejaVuSans-35" x="660.351562"/>
      <use xlink:href="#DejaVuSans-2e" x="723.974609"/>
      <use xlink:href="#DejaVuSans-31" x="755.761719"/>
      <use xlink:href="#DejaVuSans-30" x="819.384766"/>
      <use xlink:href="#DejaVuSans-30" x="883.007812"/>
      <use xlink:href="#DejaVuSans-30" x="946.630859"/>
      <use xlink:href="#DejaVuSans-30" x="1010.253906"/>
      <use xlink:href="#DejaVuSans-30" x="1073.876953"/>
      <use xlink:href="#DejaVuSans-2e" x="1137.5"/>
      <use xlink:href="#DejaVuSans-31" x="1169.287109"/>
      <use xlink:href="#DejaVuSans-36" x="1232.910156"/>
     </g>
    </g>
    <g id="patch_78">
     <path d="M 212.366875 116.782938 
L 232.366875 116.782938 
L 232.366875 109.782938 
L 212.366875 109.782938 
z
" style="fill: #9467bd"/>
    </g>
    <g id="text_18">
     <!-- oxigraph.0.3.0-beta.1.100000.16 -->
     <g transform="translate(240.366875 116.782938)scale(0.1 -0.1)">
      <defs>
       <path id="DejaVuSans-2d" d="M 313 2009 
L 1997 2009 
L 1997 1497 
L 313 1497 
L 313 2009 
z
" transform="scale(0.015625)"/>
      </defs>
      <use xlink:href="#DejaVuSans-6f"/>
      <use xlink:href="#DejaVuSans-78" x="58.056641"/>
      <use xlink:href="#DejaVuSans-69" x="117.236328"/>
      <use xlink:href="#DejaVuSans-67" x="145.019531"/>
      <use xlink:href="#DejaVuSans-72" x="208.496094"/>
      <use xlink:href="#DejaVuSans-61" x="249.609375"/>
      <use xlink:href="#DejaVuSans-70" x="310.888672"/>
      <use xlink:href="#DejaVuSans-68" x="374.365234"/>
      <use xlink:href="#DejaVuSans-2e" x="437.744141"/>
      <use xlink:href="#DejaVuSans-30" x="469.53125"/>
      <use xlink:href="#DejaVuSans-2e" x="533.154297"/>
      <use xlink:href="#DejaVuSans-33" x="564.941406"/>
      <use xlink:href="#DejaVuSans-2e" x="628.564453"/>
      <use xlink:href="#DejaVuSans-30" x="660.351562"/>
      <use xlink:href="#DejaVuSans-2d" x="723.974609"/>
      <use xlink:href="#DejaVuSans-62" x="760.058594"/>
      <use xlink:href="#DejaVuSans-65" x="823.535156"/>
      <use xlink:href="#DejaVuSans-74" x="885.058594"/>
      <use xlink:href="#DejaVuSans-61" x="924.267578"/>
      <use xlink:href="#DejaVuSans-2e" x="985.546875"/>
      <use xlink:href="#DejaVuSans-31" x="1017.333984"/>
      <use xlink:href="#DejaVuSans-2e" x="1080.957031"/>
      <use xlink:href="#DejaVuSans-31" x="1112.744141"/>
      <use xlink:href="#DejaVuSans-30" x="1176.367188"/>
      <use xlink:href="#DejaVuSans-30" x="1239.990234"/>
      <use xlink:href="#DejaVuSans-30" x="1303.613281"/>
      <use xlink:href="#DejaVuSans-30" x="1367.236328"/>
      <use xlink:href="#DejaVuSans-30" x="1430.859375"/>
      <use xlink:href="#DejaVuSans-2e" x="1494.482422"/>
      <use xlink:href="#DejaVuSans-31" x="1526.269531"/>
      <use xlink:href="#DejaVuSans-36" x="1589.892578"/>
     </g>
    </g>
    <g id="patch_79">
     <path d="M 212.366875 131.461063 
L 232.366875 131.461063 
L 232.366875 124.461063 
L 212.366875 124.461063 
z
" style="fill: #8c564b"/>
    </g>
    <g id="text_19">
     <!-- virtuoso.7.2.5.100000.16 -->
     <g transform="translate(240.366875 131.461063)scale(0.1 -0.1)">
      <defs>
       <path id="DejaVuSans-76" d="M 191 3500 
L 800 3500 
L 1894 563 
L 2988 3500 
L 3597 3500 
L 2284 0 
L 1503 0 
L 191 3500 
z
" transform="scale(0.015625)"/>
       <path id="DejaVuSans-37" d="M 525 4666 
L 3525 4666 
L 3525 4397 
L 1831 0 
L 1172 0 
L 2766 4134 
L 525 4134 
L 525 4666 
z
" transform="scale(0.015625)"/>
      </defs>
      <use xlink:href="#DejaVuSans-76"/>
      <use xlink:href="#DejaVuSans-69" x="59.179688"/>
      <use xlink:href="#DejaVuSans-72" x="86.962891"/>
      <use xlink:href="#DejaVuSans-74" x="128.076172"/>
      <use xlink:href="#DejaVuSans-75" x="167.285156"/>
      <use xlink:href="#DejaVuSans-6f" x="230.664062"/>
      <use xlink:href="#DejaVuSans-73" x="291.845703"/>
      <use xlink:href="#DejaVuSans-6f" x="343.945312"/>
      <use xlink:href="#DejaVuSans-2e" x="403.376953"/>
      <use xlink:href="#DejaVuSans-37" x="435.164062"/>
      <use xlink:href="#DejaVuSans-2e" x="498.787109"/>
      <use xlink:href="#DejaVuSans-32" x="530.574219"/>
      <use xlink:href="#DejaVuSans-2e" x="594.197266"/>
      <use xlink:href="#DejaVuSans-35" x="625.984375"/>
      <use xlink:href="#DejaVuSans-2e" x="689.607422"/>
      <use xlink:href="#DejaVuSans-31" x="721.394531"/>
      <use xlink:href="#DejaVuSans-30" x="785.017578"/>
      <use xlink:href="#DejaVuSans-30" x="848.640625"/>
      <use xlink:href="#DejaVuSans-30" x="912.263672"/>
      <use xlink:href="#DejaVuSans-30" x="975.886719"/>
      <use xlink:href="#DejaVuSans-30" x="1039.509766"/>
      <use xlink:href="#DejaVuSans-2e" x="1103.132812"/>
      <use xlink:href="#DejaVuSans-31" x="1134.919922"/>
      <use xlink:href="#DejaVuSans-36" x="1198.542969"/>
     </g>
    </g>
   </g>
  </g>
 </g>
 <defs>
  <clipPath id="p9041774428">
   <rect x="57.6" y="41.472" width="357.12" height="266.112"/>
  </clipPath>
 </defs>
</svg>
